<?xml version="1.0" encoding="utf-8"?>
<!-- Generator: Adobe Illustrator 18.1.1, SVG Export Plug-In . SVG Version: 6.00 Build 0)  -->
<!DOCTYPE svg PUBLIC "-//W3C//DTD SVG 1.1//EN" "http://www.w3.org/Graphics/SVG/1.1/DTD/svg11.dtd">
<svg version="1.1"
	 id="svg2" xmlns:dc="http://purl.org/dc/elements/1.1/" xmlns:cc="http://creativecommons.org/ns#" xmlns:rdf="http://www.w3.org/1999/02/22-rdf-syntax-ns#" xmlns:svg="http://www.w3.org/2000/svg"
	 xmlns="http://www.w3.org/2000/svg" xmlns:xlink="http://www.w3.org/1999/xlink" x="0px" y="0px"
	 viewBox="522.9 277.4 669.2 198.7" enable-background="new 522.9 277.4 669.2 198.7" xml:space="preserve">
<g id="g12" transform="scale(0.1)">
	<path id="path16" fill="#FFFFFF" d="M10506.2,4271.3h228.7v-1016h-228.7V4271.3z"/>
	<path id="path18" fill="#FFFFFF" d="M7947.1,4073c-42,19.5-97.3,29.3-165.7,29.3c-23.4,0-45-0.5-64.5-1.4
		c-19.6-1-37.7-2.5-54.3-4.4V3834h143.7c65.5,0,115.8,10,151,30c35.2,20,52.8,53.6,52.8,100.5
		C8010.1,4017.3,7989,4053.4,7947.1,4073z M7662.6,3438.1c17.6-2,37.6-3.2,60.1-3.7c22.5-0.5,43.5-0.8,63.1-0.8
		c60.6,0,106.5,8.3,137.8,24.9c31.3,16.7,46.9,45.5,46.9,86.6c0,40.1-15.2,69.1-45.4,87.2c-30.3,18.1-80.6,27.1-151.1,27.1h-111.4
		V3438.1z M8074.6,3726.9c78.2-46.9,117.3-110.9,117.3-192c0-53.8-11-99-33-135.6c-22-36.6-52.6-66.2-91.6-88.7
		c-39.1-22.5-85.8-38.3-140-47.6c-54.3-9.3-113.6-13.9-178.2-13.9c-47.9,0-99.7,2.2-155.4,6.6c-55.7,4.4-107,11-153.9,19.8v985.2
		c59.6,12.8,117,20.8,172.3,24.2c55.2,3.4,110.7,5.1,166.4,5.1c153.5,0,269-26.9,346.7-80.6c77.7-53.8,116.6-133.9,116.6-240.5
		c0-52.8-11.7-100.2-35.2-142.2C8183.1,3784.6,8139.1,3751.4,8074.6,3726.9"/>
	<path id="path20" fill="#FFFFFF" d="M9116.5,3902.9c-12.2,40.1-29.8,74.6-52.8,103.4c-23,28.8-51.3,51.1-85.1,66.7
		c-33.7,15.6-71.6,23.4-113.6,23.4c-43,0-81.1-7.8-114.3-23.4c-33.3-15.6-61.4-37.9-84.3-66.7c-23-28.8-40.6-63.3-52.8-103.4
		c-12.2-40-18.3-85-18.3-134.9c0-48.9,6.1-93.6,18.3-134.2c12.2-40.5,29.8-75.2,52.8-104.1c22.9-28.8,51-51.3,84.3-67.4
		c33.3-16.1,71.3-24.2,114.3-24.2c42.1,0,79.9,7.8,113.6,23.4c33.7,15.7,62.1,37.9,85.1,66.7c23,28.9,40.5,63.6,52.8,104.1
		c12.2,40.5,18.3,85.8,18.3,135.6C9134.8,3817.9,9128.7,3862.8,9116.5,3902.9L9116.5,3902.9z M9222.8,3372.1
		c-45.9-44.9-99.7-78.7-161.3-101.1c-61.6-22.5-127-33.7-196.5-33.7c-67.4,0-131.7,11.2-192.8,33.7
		c-61.1,22.5-114.9,56.2-161.3,101.1c-46.5,45-83.4,100.4-110.7,166.4c-27.4,66-41.1,142.5-41.1,229.5c0,87,13.2,163.5,39.6,229.4
		c26.4,66,62.5,121.2,108.5,165.7c45.9,44.5,99.7,78,161.3,100.4c61.6,22.5,127,33.7,196.4,33.7c71.3,0,138-11.2,200.1-33.7
		c62.1-22.5,115.6-55.9,160.6-100.4c45-44.5,80.4-99.7,106.3-165.7c25.9-65.9,38.9-142.4,38.9-229.4c0-87-13.1-163.5-39.6-229.5
		C9304.9,3472.6,9268.8,3417.1,9222.8,3372.1"/>
	<path id="path22" fill="#FFFFFF" d="M11667.3,3902.9c-12.2,40.1-29.8,74.6-52.8,103.4c-23,28.8-51.3,51.1-85.1,66.7
		c-33.7,15.6-71.6,23.4-113.6,23.4c-43,0-81.1-7.8-114.3-23.4c-33.3-15.6-61.4-37.9-84.3-66.7c-23-28.8-40.6-63.3-52.8-103.4
		c-12.2-40-18.4-85-18.4-134.9c0-48.9,6.1-93.6,18.4-134.2c12.2-40.5,29.8-75.2,52.8-104.1c22.9-28.8,51-51.3,84.3-67.4
		c33.3-16.1,71.3-24.2,114.3-24.2c42,0,79.9,7.8,113.6,23.4c33.7,15.7,62.1,37.9,85.1,66.7c23,28.9,40.5,63.6,52.8,104.1
		c12.2,40.5,18.3,85.8,18.3,135.6C11685.6,3817.9,11679.5,3862.8,11667.3,3902.9L11667.3,3902.9z M11882.1,3538.5
		c-26.4-66-62.5-121.4-108.5-166.4c-45.9-44.9-99.7-78.7-161.3-101.1c-61.6-22.5-127-33.7-196.5-33.7c-67.4,0-131.7,11.2-192.8,33.7
		c-61.1,22.5-114.9,56.2-161.3,101.1c-46.5,45-83.4,100.4-110.7,166.4c-27.4,66-41.1,142.5-41.1,229.5c0,87,13.2,163.5,39.6,229.4
		c26.4,66,62.5,121.2,108.5,165.7c45.9,44.5,99.7,78,161.3,100.4c61.6,22.5,127,33.7,196.4,33.7c71.3,0,138-11.2,200.1-33.7
		c62.1-22.5,115.6-55.9,160.5-100.4c45-44.5,80.4-99.7,106.3-165.7c25.9-65.9,38.9-142.4,38.9-229.4
		C11921.7,3681,11908.5,3604.5,11882.1,3538.5"/>
	<path id="path24" fill="#FFFFFF" d="M9947.3,3728.4c77.3-76.9,150.9-153.4,220.9-229.4c70-76,139.5-155.1,208.7-237.5h-271.4
		c-51.4,58-107.4,120.7-168.1,188.1c-60.7,67.4-120.4,132.1-179.2,193.8v-381.9h-228.7v1016h228.7v-430.3
		c35.3,27.4,70.5,59,105.8,94.8c35.3,35.8,69.1,73.2,101.3,112.2c32.3,39,62.4,77.7,90.3,116.1c27.9,38.4,52.2,74.1,72.8,107.2
		h271.9c-69.7-112.1-142.3-214.8-217.9-307.8C10107,3876.7,10028.6,3796.2,9947.3,3728.4"/>
	<path id="path26" fill="#48BAA2" d="M7216.1,2773.9H5229.4l993.4,993.4L7216.1,2773.9"/>
	<path id="path28" fill="#48BAA2" d="M5229.4,2773.9v1986.7l993.4-993.4L5229.4,2773.9"/>
	<path id="path30" fill="#FFFFFF" d="M7216.1,2773.9H5229.4l993.4,993.4L7216.1,2773.9"/>
	<path id="path32" fill="#ACECDF" d="M5229.4,2773.9v1986.7l993.4-993.4L5229.4,2773.9"/>
	<path id="path34" fill="#3EA18C" d="M5229.4,4760.6h404.1l589.3-993.4L5229.4,4760.6"/>
	<path id="path36" fill="#75DFC9" d="M6222.8,3767.3l-589.3,993.4h1582.7L6222.8,3767.3"/>
</g>
</svg>
